<?xml version="1.0"?>
<svg width="640" height="480" xmlns="http://www.w3.org/2000/svg" xmlns:svg="http://www.w3.org/2000/svg">
 <!-- Created with SVG-edit - https://github.com/SVG-Edit/svgedit-->
 <g class="layer">
  <title>Layer 1</title>
  <rect fill="#aad4ff" height="79" id="svg_20" stroke="#000000" stroke-width="5" width="170" x="57.5" y="40"/>
  <line fill="none" id="svg_19" stroke="#000000" stroke-width="5" x1="72.5" x2="71.5" y1="56" y2="111"/>
  <line fill="none" id="svg_18" stroke="#000000" stroke-width="5" x1="72.5" x2="104.5" y1="57" y2="57"/>
  <line fill="none" id="svg_17" stroke="#000000" stroke-width="5" x1="74.5" x2="91.5" y1="80" y2="80"/>
  <line fill="none" id="svg_16" stroke="#000000" stroke-width="5" x1="73.5" x2="101.5" y1="108" y2="107"/>
  <rect fill="#aaaaff" height="46.000001" id="svg_21" stroke="#000000" stroke-dasharray="null" stroke-linecap="null" stroke-linejoin="null" stroke-width="5" width="103" x="110.5" y="60.499999"/>
  <rect fill="#aaaaff" height="0" id="svg_22" stroke="#000000" stroke-dasharray="null" stroke-linecap="null" stroke-linejoin="null" stroke-width="5" width="1" x="754.5" y="199.5"/>
  <rect fill="#ebed9e" height="45" id="svg_23" stroke="#000000" stroke-dasharray="null" stroke-linecap="null" stroke-linejoin="null" stroke-width="5" width="20" x="112.5" y="61.5"/>
  <rect fill="#aaffaa" height="45" id="svg_24" stroke="#000000" stroke-dasharray="null" stroke-linecap="null" stroke-linejoin="null" stroke-width="5" width="20" x="133.5" y="62"/>
  <rect fill="#ffd4aa" height="23.000001" id="svg_36" stroke="#000000" stroke-dasharray="null" stroke-linecap="null" stroke-linejoin="null" stroke-width="5" width="58.000001" x="154.499999" y="82.999999"/>
  <line fill="none" id="svg_38" stroke="#000000" stroke-dasharray="null" stroke-linecap="null" stroke-linejoin="null" stroke-width="5" x1="211.5" x2="184.5" y1="59.5" y2="83.5"/>
  <line fill="none" id="svg_39" stroke="#000000" stroke-dasharray="null" stroke-linecap="null" stroke-linejoin="null" stroke-width="5" transform="rotate(-88.1524 198.5 94.5)" x1="212" x2="185" y1="82.5" y2="106.5"/>
  <line fill="none" id="svg_40" stroke="#000000" stroke-dasharray="null" stroke-linecap="null" stroke-linejoin="null" stroke-width="5" transform="rotate(-90.8069 122 95)" x1="134.153985" x2="109.846015" y1="85.586164" y2="104.413836"/>
  <line fill="none" id="svg_41" stroke="#000000" stroke-dasharray="null" stroke-linecap="null" stroke-linejoin="null" stroke-width="5" x1="764.5" x2="765.5" y1="132.5" y2="132.5"/>
  <line fill="none" id="svg_42" stroke="#000000" stroke-width="5" x1="115" x2="132" y1="77.5" y2="77.5"/>
 </g>
</svg>